# xmcd
#
# Track frame offsets: 
#        150
#        16894
#        29382
#        41263
#        58254
#        77069
#        88831
#        108717
#        121016
#        134100
#        153062
#        161352
#
# Disc length: 2324 seconds
#
# Revision: 0
# Processed by: cddbd v1.4PL0 Copyright (c) Steve Scherf et al.
# Submitted via: ExactAudioCopy v0.90a11
#
DISCID=9209120c
DTITLE=Ralph Stanley - While The Ages Roll On
DYEAR=1900
DGENRE=
TTITLE0=Dad's Old Rocky Field
TTITLE1=Are You Ready
TTITLE2=Gone Away With A Friend
TTITLE3=Daddy's Wildwood Flower
TTITLE4=While The Ages Roll On
TTITLE5=Old Job
TTITLE6=The Day Is Past And Gone
TTITLE7=Man From Galilee
TTITLE8=One Drop Of Water
TTITLE9=Because He Loved Me
TTITLE10=Waiting For Me
TTITLE11=A Robin Built A Nest On Daddy's Grave
EXTD=
EXTT0=
EXTT1=
EXTT2=
EXTT3=
EXTT4=
EXTT5=
EXTT6=
EXTT7=
EXTT8=
EXTT9=
EXTT10=
EXTT11=
PLAYORDER=
